<mxfile host="app.diagrams.net" modified="2023-09-27T16:38:06.829Z" agent="Mozilla/5.0 (Windows NT 10.0; Win64; x64) AppleWebKit/537.36 (KHTML, like Gecko) Chrome/117.0.0.0 Safari/537.36" etag="skCLTPIvhdMiNHJWaXew" version="21.8.2" type="device">
  <diagram name="第 1 页" id="Twhth6l01lcExw6QNPoq">
    <mxGraphModel dx="794" dy="464" grid="1" gridSize="10" guides="1" tooltips="1" connect="1" arrows="1" fold="1" page="1" pageScale="1" pageWidth="827" pageHeight="1169" math="0" shadow="0">
      <root>
        <mxCell id="0" />
        <mxCell id="1" parent="0" />
        <mxCell id="74Lp3a9hhMJhZLi8stWH-1" value="" style="rounded=0;whiteSpace=wrap;html=1;" parent="1" vertex="1">
          <mxGeometry x="205" y="39" width="280" height="80" as="geometry" />
        </mxCell>
        <mxCell id="74Lp3a9hhMJhZLi8stWH-2" value="" style="rounded=0;whiteSpace=wrap;html=1;" parent="1" vertex="1">
          <mxGeometry x="225" y="69" width="90" height="40" as="geometry" />
        </mxCell>
        <mxCell id="74Lp3a9hhMJhZLi8stWH-3" value="" style="rounded=0;whiteSpace=wrap;html=1;" parent="1" vertex="1">
          <mxGeometry x="395" y="69" width="70" height="40" as="geometry" />
        </mxCell>
        <mxCell id="74Lp3a9hhMJhZLi8stWH-4" value="a.logo" style="text;html=1;align=center;verticalAlign=middle;resizable=0;points=[];autosize=1;strokeColor=none;fillColor=none;" parent="1" vertex="1">
          <mxGeometry x="210" y="49" width="60" height="30" as="geometry" />
        </mxCell>
        <mxCell id="74Lp3a9hhMJhZLi8stWH-5" value=".nav-toggler" style="text;html=1;align=center;verticalAlign=middle;resizable=0;points=[];autosize=1;strokeColor=none;fillColor=none;" parent="1" vertex="1">
          <mxGeometry x="385" y="60" width="90" height="30" as="geometry" />
        </mxCell>
        <mxCell id="74Lp3a9hhMJhZLi8stWH-6" value="header" style="text;html=1;align=right;verticalAlign=middle;resizable=0;points=[];autosize=1;strokeColor=none;fillColor=none;" parent="1" vertex="1">
          <mxGeometry x="140" y="39" width="60" height="30" as="geometry" />
        </mxCell>
        <mxCell id="74Lp3a9hhMJhZLi8stWH-7" value="" style="rounded=0;whiteSpace=wrap;html=1;" parent="1" vertex="1">
          <mxGeometry x="205" y="150" width="280" height="330" as="geometry" />
        </mxCell>
        <mxCell id="74Lp3a9hhMJhZLi8stWH-9" value=".banner-img" style="text;html=1;align=center;verticalAlign=middle;resizable=0;points=[];autosize=1;strokeColor=none;fillColor=none;" parent="1" vertex="1">
          <mxGeometry x="214" y="150" width="90" height="30" as="geometry" />
        </mxCell>
        <mxCell id="74Lp3a9hhMJhZLi8stWH-11" value="" style="rounded=0;whiteSpace=wrap;html=1;" parent="1" vertex="1">
          <mxGeometry x="225" y="260" width="235" height="160" as="geometry" />
        </mxCell>
        <mxCell id="74Lp3a9hhMJhZLi8stWH-12" value="section#banner" style="text;html=1;align=center;verticalAlign=middle;resizable=0;points=[];autosize=1;strokeColor=none;fillColor=none;" parent="1" vertex="1">
          <mxGeometry x="190" y="130" width="110" height="30" as="geometry" />
        </mxCell>
        <mxCell id="74Lp3a9hhMJhZLi8stWH-13" value="" style="rounded=0;whiteSpace=wrap;html=1;" parent="1" vertex="1">
          <mxGeometry x="250" y="283.13" width="190" height="16.87" as="geometry" />
        </mxCell>
        <mxCell id="74Lp3a9hhMJhZLi8stWH-14" value=".title.banner-title" style="text;html=1;align=center;verticalAlign=middle;resizable=0;points=[];autosize=1;strokeColor=none;fillColor=none;" parent="1" vertex="1">
          <mxGeometry x="240" y="260" width="110" height="30" as="geometry" />
        </mxCell>
        <mxCell id="74Lp3a9hhMJhZLi8stWH-15" value="" style="rounded=0;whiteSpace=wrap;html=1;" parent="1" vertex="1">
          <mxGeometry x="250" y="315.33" width="190" height="54.67" as="geometry" />
        </mxCell>
        <mxCell id="74Lp3a9hhMJhZLi8stWH-17" value=".text.banner-text" style="text;html=1;align=center;verticalAlign=middle;resizable=0;points=[];autosize=1;strokeColor=none;fillColor=none;" parent="1" vertex="1">
          <mxGeometry x="240" y="293" width="110" height="30" as="geometry" />
        </mxCell>
        <mxCell id="74Lp3a9hhMJhZLi8stWH-18" value="" style="rounded=0;whiteSpace=wrap;html=1;" parent="1" vertex="1">
          <mxGeometry x="300" y="390" width="90" height="20" as="geometry" />
        </mxCell>
        <mxCell id="74Lp3a9hhMJhZLi8stWH-20" value=".btn.banner-btn" style="text;html=1;align=center;verticalAlign=middle;resizable=0;points=[];autosize=1;strokeColor=none;fillColor=none;" parent="1" vertex="1">
          <mxGeometry x="290" y="370" width="100" height="30" as="geometry" />
        </mxCell>
        <mxCell id="74Lp3a9hhMJhZLi8stWH-21" value="" style="rounded=0;whiteSpace=wrap;html=1;" parent="1" vertex="1">
          <mxGeometry x="205" y="510" width="280" height="440" as="geometry" />
        </mxCell>
        <mxCell id="74Lp3a9hhMJhZLi8stWH-22" value="section#different" style="text;html=1;align=center;verticalAlign=middle;resizable=0;points=[];autosize=1;strokeColor=none;fillColor=none;" parent="1" vertex="1">
          <mxGeometry x="195" y="490" width="110" height="30" as="geometry" />
        </mxCell>
        <mxCell id="74Lp3a9hhMJhZLi8stWH-23" value="" style="rounded=0;whiteSpace=wrap;html=1;" parent="1" vertex="1">
          <mxGeometry x="225" y="170" width="235" height="70" as="geometry" />
        </mxCell>
        <mxCell id="74Lp3a9hhMJhZLi8stWH-25" value="" style="rounded=0;whiteSpace=wrap;html=1;" parent="1" vertex="1">
          <mxGeometry x="225" y="550" width="240" height="50" as="geometry" />
        </mxCell>
        <mxCell id="74Lp3a9hhMJhZLi8stWH-27" value="" style="endArrow=none;html=1;rounded=0;" parent="1" source="74Lp3a9hhMJhZLi8stWH-25" edge="1">
          <mxGeometry width="50" height="50" relative="1" as="geometry">
            <mxPoint x="405" y="600" as="sourcePoint" />
            <mxPoint x="455" y="550" as="targetPoint" />
          </mxGeometry>
        </mxCell>
        <mxCell id="74Lp3a9hhMJhZLi8stWH-29" value="" style="endArrow=none;html=1;rounded=0;strokeColor=#B3B3B3;" parent="1" edge="1">
          <mxGeometry width="50" height="50" relative="1" as="geometry">
            <mxPoint x="305" y="535" as="sourcePoint" />
            <mxPoint x="385" y="535" as="targetPoint" />
          </mxGeometry>
        </mxCell>
        <mxCell id="74Lp3a9hhMJhZLi8stWH-30" value=".title.different-title" style="text;html=1;align=center;verticalAlign=middle;resizable=0;points=[];autosize=1;strokeColor=none;fillColor=none;" parent="1" vertex="1">
          <mxGeometry x="215" y="528" width="110" height="30" as="geometry" />
        </mxCell>
        <mxCell id="74Lp3a9hhMJhZLi8stWH-31" value="&lt;font&gt;(.different-title) ::before&lt;/font&gt;" style="text;html=1;align=center;verticalAlign=middle;resizable=0;points=[];autosize=1;strokeColor=none;fillColor=none;fontColor=#B3B3B3;" parent="1" vertex="1">
          <mxGeometry x="274" y="513" width="140" height="30" as="geometry" />
        </mxCell>
        <mxCell id="74Lp3a9hhMJhZLi8stWH-32" value="" style="rounded=0;whiteSpace=wrap;html=1;" parent="1" vertex="1">
          <mxGeometry x="225" y="630" width="240" height="260" as="geometry" />
        </mxCell>
        <mxCell id="74Lp3a9hhMJhZLi8stWH-33" value=".box.different-box" style="text;html=1;align=center;verticalAlign=middle;resizable=0;points=[];autosize=1;strokeColor=none;fillColor=none;" parent="1" vertex="1">
          <mxGeometry x="215" y="610" width="120" height="30" as="geometry" />
        </mxCell>
        <mxCell id="74Lp3a9hhMJhZLi8stWH-34" value="" style="ellipse;whiteSpace=wrap;html=1;aspect=fixed;" parent="1" vertex="1">
          <mxGeometry x="315" y="650" width="60" height="60" as="geometry" />
        </mxCell>
        <mxCell id="74Lp3a9hhMJhZLi8stWH-35" value=".icon.process" style="text;html=1;strokeColor=none;fillColor=none;align=center;verticalAlign=middle;whiteSpace=wrap;rounded=0;" parent="1" vertex="1">
          <mxGeometry x="315" y="630" width="60" height="30" as="geometry" />
        </mxCell>
        <mxCell id="74Lp3a9hhMJhZLi8stWH-37" value="" style="rounded=0;whiteSpace=wrap;html=1;" parent="1" vertex="1">
          <mxGeometry x="245" y="730" width="200" height="30" as="geometry" />
        </mxCell>
        <mxCell id="74Lp3a9hhMJhZLi8stWH-38" value=".box-title" style="text;html=1;align=center;verticalAlign=middle;resizable=0;points=[];autosize=1;strokeColor=none;fillColor=none;" parent="1" vertex="1">
          <mxGeometry x="235" y="710" width="70" height="30" as="geometry" />
        </mxCell>
        <mxCell id="74Lp3a9hhMJhZLi8stWH-39" value="" style="rounded=0;whiteSpace=wrap;html=1;" parent="1" vertex="1">
          <mxGeometry x="245" y="780" width="200" height="80" as="geometry" />
        </mxCell>
        <mxCell id="74Lp3a9hhMJhZLi8stWH-40" value=".text" style="text;html=1;align=center;verticalAlign=middle;resizable=0;points=[];autosize=1;strokeColor=none;fillColor=none;" parent="1" vertex="1">
          <mxGeometry x="235" y="760" width="50" height="30" as="geometry" />
        </mxCell>
        <mxCell id="74Lp3a9hhMJhZLi8stWH-43" value="" style="rounded=0;whiteSpace=wrap;html=1;" parent="1" vertex="1">
          <mxGeometry x="230" y="980" width="230" height="160" as="geometry" />
        </mxCell>
        <mxCell id="74Lp3a9hhMJhZLi8stWH-44" value="section#find-out" style="text;html=1;align=center;verticalAlign=middle;resizable=0;points=[];autosize=1;strokeColor=none;fillColor=none;" parent="1" vertex="1">
          <mxGeometry x="220" y="960" width="110" height="30" as="geometry" />
        </mxCell>
        <mxCell id="74Lp3a9hhMJhZLi8stWH-45" value="" style="rounded=0;whiteSpace=wrap;html=1;" parent="1" vertex="1">
          <mxGeometry x="250" y="1010" width="190" height="70" as="geometry" />
        </mxCell>
        <mxCell id="74Lp3a9hhMJhZLi8stWH-46" value=".title.find-out-title" style="text;html=1;align=center;verticalAlign=middle;resizable=0;points=[];autosize=1;strokeColor=none;fillColor=none;" parent="1" vertex="1">
          <mxGeometry x="240" y="990" width="110" height="30" as="geometry" />
        </mxCell>
        <mxCell id="74Lp3a9hhMJhZLi8stWH-47" value="" style="rounded=0;whiteSpace=wrap;html=1;" parent="1" vertex="1">
          <mxGeometry x="300" y="1100" width="90" height="20" as="geometry" />
        </mxCell>
        <mxCell id="74Lp3a9hhMJhZLi8stWH-48" value=".btn.find-out-btn" style="text;html=1;align=center;verticalAlign=middle;resizable=0;points=[];autosize=1;strokeColor=none;fillColor=none;" parent="1" vertex="1">
          <mxGeometry x="285" y="1080" width="110" height="30" as="geometry" />
        </mxCell>
        <mxCell id="74Lp3a9hhMJhZLi8stWH-49" value="" style="rounded=0;whiteSpace=wrap;html=1;" parent="1" vertex="1">
          <mxGeometry x="205" y="1169" width="280" height="541" as="geometry" />
        </mxCell>
        <mxCell id="74Lp3a9hhMJhZLi8stWH-50" value="footer" style="text;html=1;align=right;verticalAlign=middle;resizable=0;points=[];autosize=1;strokeColor=none;fillColor=none;" parent="1" vertex="1">
          <mxGeometry x="150" y="1170" width="50" height="30" as="geometry" />
        </mxCell>
        <mxCell id="74Lp3a9hhMJhZLi8stWH-51" value="" style="rounded=0;whiteSpace=wrap;html=1;" parent="1" vertex="1">
          <mxGeometry x="225" y="1200" width="240" height="140" as="geometry" />
        </mxCell>
        <mxCell id="74Lp3a9hhMJhZLi8stWH-52" value=".footer-top" style="text;html=1;align=center;verticalAlign=middle;resizable=0;points=[];autosize=1;strokeColor=none;fillColor=none;" parent="1" vertex="1">
          <mxGeometry x="215" y="1180" width="80" height="30" as="geometry" />
        </mxCell>
        <mxCell id="74Lp3a9hhMJhZLi8stWH-53" value="" style="rounded=0;whiteSpace=wrap;html=1;" parent="1" vertex="1">
          <mxGeometry x="285" y="1217" width="120" height="30" as="geometry" />
        </mxCell>
        <mxCell id="74Lp3a9hhMJhZLi8stWH-54" value="" style="rounded=0;whiteSpace=wrap;html=1;" parent="1" vertex="1">
          <mxGeometry x="260" y="1260" width="170" height="60" as="geometry" />
        </mxCell>
        <mxCell id="74Lp3a9hhMJhZLi8stWH-55" value="" style="rounded=0;whiteSpace=wrap;html=1;" parent="1" vertex="1">
          <mxGeometry x="270" y="1280" width="30" height="30" as="geometry" />
        </mxCell>
        <mxCell id="74Lp3a9hhMJhZLi8stWH-56" value="" style="rounded=0;whiteSpace=wrap;html=1;" parent="1" vertex="1">
          <mxGeometry x="310" y="1280" width="30" height="30" as="geometry" />
        </mxCell>
        <mxCell id="74Lp3a9hhMJhZLi8stWH-57" value="" style="rounded=0;whiteSpace=wrap;html=1;" parent="1" vertex="1">
          <mxGeometry x="350" y="1280" width="30" height="30" as="geometry" />
        </mxCell>
        <mxCell id="74Lp3a9hhMJhZLi8stWH-58" value="" style="rounded=0;whiteSpace=wrap;html=1;" parent="1" vertex="1">
          <mxGeometry x="390" y="1280" width="30" height="30" as="geometry" />
        </mxCell>
        <mxCell id="74Lp3a9hhMJhZLi8stWH-59" value=".logo" style="text;html=1;align=center;verticalAlign=middle;resizable=0;points=[];autosize=1;strokeColor=none;fillColor=none;" parent="1" vertex="1">
          <mxGeometry x="275" y="1195" width="50" height="30" as="geometry" />
        </mxCell>
        <mxCell id="74Lp3a9hhMJhZLi8stWH-60" value=".social-media" style="text;html=1;align=center;verticalAlign=middle;resizable=0;points=[];autosize=1;strokeColor=none;fillColor=none;" parent="1" vertex="1">
          <mxGeometry x="250" y="1240" width="90" height="30" as="geometry" />
        </mxCell>
        <mxCell id="74Lp3a9hhMJhZLi8stWH-61" value=".icon" style="text;html=1;align=center;verticalAlign=middle;resizable=0;points=[];autosize=1;strokeColor=none;fillColor=none;" parent="1" vertex="1">
          <mxGeometry x="255" y="1260" width="50" height="30" as="geometry" />
        </mxCell>
        <mxCell id="74Lp3a9hhMJhZLi8stWH-62" value="" style="endArrow=none;html=1;rounded=0;strokeColor=#B3B3B3;exitX=0.071;exitY=0.646;exitDx=0;exitDy=0;exitPerimeter=0;" parent="1" edge="1">
          <mxGeometry width="50" height="50" relative="1" as="geometry">
            <mxPoint x="224.88" y="1359.906" as="sourcePoint" />
            <mxPoint x="465" y="1360" as="targetPoint" />
          </mxGeometry>
        </mxCell>
        <mxCell id="74Lp3a9hhMJhZLi8stWH-66" value="(.footer-top) border" style="text;html=1;align=center;verticalAlign=middle;resizable=0;points=[];autosize=1;strokeColor=none;fillColor=none;fontColor=#B3B3B3;" parent="1" vertex="1">
          <mxGeometry x="215" y="1340" width="120" height="30" as="geometry" />
        </mxCell>
        <mxCell id="74Lp3a9hhMJhZLi8stWH-67" value="" style="rounded=0;whiteSpace=wrap;html=1;" parent="1" vertex="1">
          <mxGeometry x="225" y="1390" width="240" height="290" as="geometry" />
        </mxCell>
        <mxCell id="74Lp3a9hhMJhZLi8stWH-68" value=".footer-bottom" style="text;html=1;align=center;verticalAlign=middle;resizable=0;points=[];autosize=1;strokeColor=none;fillColor=none;" parent="1" vertex="1">
          <mxGeometry x="215" y="1370" width="100" height="30" as="geometry" />
        </mxCell>
        <mxCell id="74Lp3a9hhMJhZLi8stWH-69" value="" style="rounded=0;whiteSpace=wrap;html=1;" parent="1" vertex="1">
          <mxGeometry x="260" y="1420" width="175" height="180" as="geometry" />
        </mxCell>
        <mxCell id="74Lp3a9hhMJhZLi8stWH-70" value=".item.footer-item" style="text;html=1;align=center;verticalAlign=middle;resizable=0;points=[];autosize=1;strokeColor=none;fillColor=none;" parent="1" vertex="1">
          <mxGeometry x="250" y="1400" width="110" height="30" as="geometry" />
        </mxCell>
        <mxCell id="74Lp3a9hhMJhZLi8stWH-71" value="" style="rounded=0;whiteSpace=wrap;html=1;" parent="1" vertex="1">
          <mxGeometry x="287.5" y="1440" width="120" height="20" as="geometry" />
        </mxCell>
        <mxCell id="74Lp3a9hhMJhZLi8stWH-72" value=".item-title" style="text;html=1;align=center;verticalAlign=middle;resizable=0;points=[];autosize=1;strokeColor=none;fillColor=none;" parent="1" vertex="1">
          <mxGeometry x="275" y="1420" width="70" height="30" as="geometry" />
        </mxCell>
        <mxCell id="74Lp3a9hhMJhZLi8stWH-73" value="" style="rounded=0;whiteSpace=wrap;html=1;" parent="1" vertex="1">
          <mxGeometry x="287.5" y="1480" width="120" height="90" as="geometry" />
        </mxCell>
        <mxCell id="74Lp3a9hhMJhZLi8stWH-75" value="ul.links" style="text;html=1;align=center;verticalAlign=middle;resizable=0;points=[];autosize=1;strokeColor=none;fillColor=none;" parent="1" vertex="1">
          <mxGeometry x="275" y="1460" width="60" height="30" as="geometry" />
        </mxCell>
        <mxCell id="74Lp3a9hhMJhZLi8stWH-76" value="" style="rounded=0;whiteSpace=wrap;html=1;" parent="1" vertex="1">
          <mxGeometry x="300" y="1495" width="95" height="25" as="geometry" />
        </mxCell>
        <mxCell id="74Lp3a9hhMJhZLi8stWH-77" value="li.link" style="text;html=1;align=center;verticalAlign=middle;resizable=0;points=[];autosize=1;strokeColor=none;fillColor=none;" parent="1" vertex="1">
          <mxGeometry x="287.5" y="1474" width="50" height="30" as="geometry" />
        </mxCell>
        <mxCell id="74Lp3a9hhMJhZLi8stWH-78" value="" style="rounded=0;whiteSpace=wrap;html=1;" parent="1" vertex="1">
          <mxGeometry x="539" y="69" width="120" height="100" as="geometry" />
        </mxCell>
        <mxCell id="74Lp3a9hhMJhZLi8stWH-79" value="svg" style="rounded=0;whiteSpace=wrap;html=1;" parent="1" vertex="1">
          <mxGeometry x="242.5" y="79" width="55" height="20" as="geometry" />
        </mxCell>
        <mxCell id="74Lp3a9hhMJhZLi8stWH-80" value="svg" style="rounded=0;whiteSpace=wrap;html=1;" parent="1" vertex="1">
          <mxGeometry x="305" y="1222" width="85" height="20" as="geometry" />
        </mxCell>
        <mxCell id="74Lp3a9hhMJhZLi8stWH-83" value="" style="shape=flexArrow;endArrow=classic;html=1;rounded=0;fillColor=#f8cecc;strokeColor=#FFFFFF;" parent="1" edge="1">
          <mxGeometry width="50" height="50" relative="1" as="geometry">
            <mxPoint x="470" y="89" as="sourcePoint" />
            <mxPoint x="535" y="89" as="targetPoint" />
          </mxGeometry>
        </mxCell>
        <mxCell id="74Lp3a9hhMJhZLi8stWH-84" value="ul.nav-links" style="text;html=1;align=center;verticalAlign=middle;resizable=0;points=[];autosize=1;strokeColor=none;fillColor=none;" parent="1" vertex="1">
          <mxGeometry x="530" y="49" width="80" height="30" as="geometry" />
        </mxCell>
        <mxCell id="74Lp3a9hhMJhZLi8stWH-85" value="nav" style="text;html=1;align=center;verticalAlign=middle;resizable=0;points=[];autosize=1;strokeColor=none;fillColor=none;" parent="1" vertex="1">
          <mxGeometry x="385" y="49" width="40" height="30" as="geometry" />
        </mxCell>
        <mxCell id="74Lp3a9hhMJhZLi8stWH-86" value="svg" style="rounded=0;whiteSpace=wrap;html=1;" parent="1" vertex="1">
          <mxGeometry x="417.5" y="81.5" width="25" height="25" as="geometry" />
        </mxCell>
        <mxCell id="74Lp3a9hhMJhZLi8stWH-87" value="" style="rounded=0;whiteSpace=wrap;html=1;" parent="1" vertex="1">
          <mxGeometry x="554" y="88.5" width="90" height="30.5" as="geometry" />
        </mxCell>
        <mxCell id="74Lp3a9hhMJhZLi8stWH-88" value="li.nav-link" style="text;html=1;align=center;verticalAlign=middle;resizable=0;points=[];autosize=1;strokeColor=none;fillColor=none;" parent="1" vertex="1">
          <mxGeometry x="545" y="69" width="70" height="30" as="geometry" />
        </mxCell>
        <mxCell id="74Lp3a9hhMJhZLi8stWH-89" value="a" style="rounded=0;whiteSpace=wrap;html=1;" parent="1" vertex="1">
          <mxGeometry x="569" y="93.75" width="60" height="20" as="geometry" />
        </mxCell>
        <mxCell id="74Lp3a9hhMJhZLi8stWH-90" value="a" style="rounded=0;whiteSpace=wrap;html=1;" parent="1" vertex="1">
          <mxGeometry x="312.5" y="1497.5" width="70" height="20" as="geometry" />
        </mxCell>
        <mxCell id="74Lp3a9hhMJhZLi8stWH-93" value="" style="rounded=1;whiteSpace=wrap;html=1;fillColor=none;strokeColor=#CC0000;strokeWidth=3;" parent="1" vertex="1">
          <mxGeometry x="215" y="46" width="260" height="1654" as="geometry" />
        </mxCell>
        <mxCell id="74Lp3a9hhMJhZLi8stWH-94" value=".container" style="text;html=1;align=center;verticalAlign=middle;resizable=0;points=[];autosize=1;strokeColor=none;fillColor=none;fontColor=#CC0000;" parent="1" vertex="1">
          <mxGeometry x="304" y="13" width="80" height="30" as="geometry" />
        </mxCell>
        <mxCell id="I3ZgkDx3BSZWgENra0iw-1" value="main" style="text;html=1;align=right;verticalAlign=middle;resizable=0;points=[];autosize=1;strokeColor=none;fillColor=none;" parent="1" vertex="1">
          <mxGeometry x="150" y="150" width="50" height="30" as="geometry" />
        </mxCell>
        <mxCell id="JElRtoSjF1ATfcJIOVnm-3" value=".description" style="text;html=1;align=center;verticalAlign=middle;resizable=0;points=[];autosize=1;strokeColor=none;fillColor=none;" parent="1" vertex="1">
          <mxGeometry x="219" y="240" width="80" height="30" as="geometry" />
        </mxCell>
        <mxCell id="JElRtoSjF1ATfcJIOVnm-4" value="img" style="rounded=0;whiteSpace=wrap;html=1;" parent="1" vertex="1">
          <mxGeometry x="250" y="180" width="190" height="50" as="geometry" />
        </mxCell>
      </root>
    </mxGraphModel>
  </diagram>
</mxfile>
